<?xml version="1.0" encoding="utf-8"?>
<!-- Generator: Adobe Illustrator 27.1.1, SVG Export Plug-In . SVG Version: 6.00 Build 0)  -->
<svg version="1.1" id="Layer_1" xmlns="http://www.w3.org/2000/svg" xmlns:xlink="http://www.w3.org/1999/xlink" x="0px" y="0px"
	 viewBox="0 0 700 700" style="enable-background:new 0 0 700 700;" xml:space="preserve">
<style type="text/css">
	.st0{fill:#6FCCDD;}
</style>
<g>
	<path class="st0" d="M348.4,591.7c0.2-22.7-8.6-44.6-24.5-60.7c-15.9-16.2-37.6-25.4-60.3-25.5c-22.7-0.2-44.5,8.7-60.7,24.7
		c-16.1,16-25.2,37.7-25.3,60.4c-0.1,22.7,8.9,44.5,24.9,60.6c16,16.1,37.8,25.1,60.5,25.1c22.5,0,44.1-8.9,60.1-24.7
		C339.1,635.7,348.1,614.2,348.4,591.7L348.4,591.7z M212.9,591.7c0-13.3,5.3-26,14.7-35.4c9.4-9.4,22.1-14.7,35.4-14.7
		c17.9,0,34.4,9.5,43.3,25c8.9,15.5,8.9,34.6,0,50c-8.9,15.5-25.5,25-43.3,25c-13.3,0-26-5.3-35.4-14.7
		C218.2,617.7,212.9,605,212.9,591.7L212.9,591.7z"/>
	<path class="st0" d="M608.1,591.7c0-22.4-8.9-43.9-24.8-59.8c-15.9-15.9-37.4-24.8-59.8-24.8s-43.9,8.9-59.8,24.8
		c-15.9,15.9-24.8,37.4-24.8,59.8s8.9,43.9,24.8,59.8c15.9,15.9,37.4,24.8,59.8,24.8s43.9-8.9,59.8-24.8
		C599.2,635.6,608.1,614.1,608.1,591.7z M473.5,591.7c0-13.3,5.3-26,14.7-35.4c9.4-9.4,22.1-14.7,35.4-14.7c13.3,0,26,5.3,35.4,14.7
		c9.4,9.4,14.7,22.1,14.7,35.4s-5.3,26-14.7,35.4c-9.4,9.4-22.1,14.7-35.4,14.7c-13.3,0-26-5.3-35.4-14.7
		C478.7,617.7,473.5,605,473.5,591.7z"/>
	<path class="st0" d="M669.3,163.8h-509L138.7,55.1c-1.7-6.8-7-12.1-13.8-13.8L34.3,24c-9.5-1.6-18.6,4.4-20.7,13.8
		c-1.6,9.3,4.6,18.1,13.8,19.8l79.4,15.5l64.7,322.7c3.8,19.6,14.3,37.4,29.7,50.1c15.4,12.8,34.8,19.7,54.8,19.8h283
		c18.8,0,37.1-6,52.2-17.2c15.1-11.2,26.1-27,31.5-45l63-217.4c1.8-5.3,0.9-11.1-2.6-15.5C679.8,166.4,674.7,163.9,669.3,163.8
		L669.3,163.8z M589.1,395c-3.1,10.9-9.6,20.4-18.7,27.1c-9.1,6.7-20.1,10.2-31.4,10h-283c-11.9-0.1-23.5-4.3-32.7-11.8
		c-9.2-7.5-15.7-18-18.2-29.6l-38-192.4H646L589.1,395z"/>
</g>
</svg>
