<?xml version="1.0" encoding="utf-8"?>
<!-- Generator: Adobe Illustrator 27.1.1, SVG Export Plug-In . SVG Version: 6.00 Build 0)  -->
<svg version="1.1" id="Layer_1" xmlns="http://www.w3.org/2000/svg" xmlns:xlink="http://www.w3.org/1999/xlink" x="0px" y="0px"
	 viewBox="0 0 700 700" style="enable-background:new 0 0 700 700;" xml:space="preserve">
<style type="text/css">
	.st0{fill:#6FCCDD;}
</style>
<g>
	<path class="st0" d="M675.7,600.3L566.6,491.2c34.8-49.7,55.3-110.1,55.4-175.3C622.2,148.8,487.4,11.4,320.4,8.7
		C147,5.9,6,147,8.7,320.4c2.7,167,140,301.8,307.1,301.6c65.2-0.1,125.7-20.6,175.3-55.4l109.1,109.1c20.8,20.8,54.6,20.8,75.4,0
		C696.5,654.8,696.5,621.1,675.7,600.3L675.7,600.3z M315.3,515.3c-110.3,0-200-89.7-200-200s89.7-200,200-200s200,89.7,200,200
		S425.6,515.3,315.3,515.3L315.3,515.3z"/>
</g>
</svg>
